# Blender v2.79 (sub 0) OBJ File: 'untitled.blend'
# www.blender.org
mtllib untitled.mtl
o 贝塞尔曲_CU贝塞尔曲
v 7.834294 3.240855 1.868281
v 8.155517 3.240855 2.251446
v 8.155517 3.740855 2.251446
v 7.834294 3.740855 1.868281
v 7.979787 3.240855 1.747982
v 8.260603 3.240855 2.161676
v 8.260603 3.740855 2.161676
v 7.979787 3.740855 1.747982
v 8.152911 3.240855 1.654723
v 8.341529 3.240855 2.117782
v 8.341529 3.740855 2.117782
v 8.152911 3.740855 1.654723
v 8.332769 3.240855 1.603000
v 8.422667 3.240855 2.094852
v 8.422667 3.740855 2.094852
v 8.332769 3.740855 1.603000
v 8.511408 3.240855 1.587649
v 8.515440 3.240855 2.087633
v 8.515440 3.740855 2.087633
v 8.511408 3.740855 1.587649
v 8.684969 3.240855 1.598866
v 8.627179 3.240855 2.095515
v 8.627179 3.740855 2.095515
v 8.684969 3.740855 1.598866
v 8.854795 3.240855 1.626896
v 8.760016 3.240855 2.117831
v 8.760016 3.740855 2.117831
v 8.854795 3.740855 1.626896
v 9.024568 3.240855 1.664173
v 8.913739 3.240855 2.151735
v 8.913739 3.740855 2.151735
v 9.024568 3.740855 1.664173
v 9.198145 3.240855 1.704898
v 9.087963 3.240855 2.192607
v 9.087963 3.740855 2.192607
v 9.198145 3.740855 1.704898
v 9.378934 3.240855 1.744220
v 9.282751 3.240855 2.234882
v 9.282751 3.740855 2.234882
v 9.378934 3.740855 1.744220
v 9.569978 3.240855 1.777707
v 9.498537 3.240855 2.272577
v 9.498537 3.740855 2.272577
v 9.569978 3.740855 1.777707
v 9.774179 3.240855 1.801049
v 9.735887 3.240855 2.299581
v 9.735887 3.740855 2.299581
v 9.774179 3.740855 1.801049
v 10.004849 3.240855 1.810061
v 9.984962 3.240855 2.309666
v 9.984962 3.740855 2.309666
v 10.004849 3.740855 1.810061
vn -0.7663 0.0000 0.6424
vn 0.9992 0.0000 0.0398
vn 0.0000 -1.0000 0.0000
vn 0.6495 0.0000 0.7603
vn 0.0000 1.0000 0.0000
vn -0.6372 0.0000 -0.7707
vn 0.4768 0.0000 0.8790
vn -0.4742 0.0000 -0.8804
vn 0.2720 0.0000 0.9623
vn -0.2764 0.0000 -0.9610
vn 0.0776 0.0000 0.9970
vn -0.0856 0.0000 -0.9963
vn -0.0704 0.0000 0.9975
vn 0.0645 0.0000 -0.9979
vn -0.1657 0.0000 0.9862
vn 0.1629 0.0000 -0.9867
vn -0.2154 0.0000 0.9765
vn 0.2145 0.0000 -0.9767
vn -0.2284 0.0000 0.9736
vn 0.2284 0.0000 -0.9736
vn -0.2121 0.0000 0.9772
vn 0.2125 0.0000 -0.9772
vn -0.1721 0.0000 0.9851
vn 0.1726 0.0000 -0.9850
vn -0.1130 0.0000 0.9936
vn 0.1136 0.0000 -0.9935
vn -0.0405 0.0000 0.9992
vn 0.0390 0.0000 -0.9992
usemtl None
s off
f 1//1 2//1 3//1 4//1
f 52//2 51//2 50//2 49//2
f 5//3 6//3 2//3 1//3
f 6//4 7//4 3//4 2//4
f 7//5 8//5 4//5 3//5
f 8//6 5//6 1//6 4//6
f 9//3 10//3 6//3 5//3
f 10//7 11//7 7//7 6//7
f 11//5 12//5 8//5 7//5
f 12//8 9//8 5//8 8//8
f 13//3 14//3 10//3 9//3
f 14//9 15//9 11//9 10//9
f 15//5 16//5 12//5 11//5
f 16//10 13//10 9//10 12//10
f 17//3 18//3 14//3 13//3
f 18//11 19//11 15//11 14//11
f 19//5 20//5 16//5 15//5
f 20//12 17//12 13//12 16//12
f 21//3 22//3 18//3 17//3
f 22//13 23//13 19//13 18//13
f 23//5 24//5 20//5 19//5
f 24//14 21//14 17//14 20//14
f 25//3 26//3 22//3 21//3
f 26//15 27//15 23//15 22//15
f 27//5 28//5 24//5 23//5
f 28//16 25//16 21//16 24//16
f 29//3 30//3 26//3 25//3
f 30//17 31//17 27//17 26//17
f 31//5 32//5 28//5 27//5
f 32//18 29//18 25//18 28//18
f 33//3 34//3 30//3 29//3
f 34//19 35//19 31//19 30//19
f 35//5 36//5 32//5 31//5
f 36//20 33//20 29//20 32//20
f 37//3 38//3 34//3 33//3
f 38//21 39//21 35//21 34//21
f 39//5 40//5 36//5 35//5
f 40//22 37//22 33//22 36//22
f 41//3 42//3 38//3 37//3
f 42//23 43//23 39//23 38//23
f 43//5 44//5 40//5 39//5
f 44//24 41//24 37//24 40//24
f 45//3 46//3 42//3 41//3
f 46//25 47//25 43//25 42//25
f 47//5 48//5 44//5 43//5
f 48//26 45//26 41//26 44//26
f 49//3 50//3 46//3 45//3
f 50//27 51//27 47//27 46//27
f 51//5 52//5 48//5 47//5
f 52//28 49//28 45//28 48//28
o Cube
v -0.373958 -1.441732 2.690172
v -0.373958 -1.441732 4.690172
v -2.373958 -1.441732 4.690172
v -2.373958 -1.441732 2.690172
v -0.373958 0.558268 2.690173
v -0.373959 0.558268 4.690173
v -2.373959 0.558268 4.690172
v -2.373958 0.558268 2.690172
vn 0.0000 -1.0000 -0.0000
vn 0.0000 1.0000 0.0000
vn 1.0000 0.0000 0.0000
vn -0.0000 -0.0000 1.0000
vn -1.0000 -0.0000 -0.0000
vn 0.0000 0.0000 -1.0000
usemtl Material
s off
f 53//29 54//29 55//29 56//29
f 57//30 60//30 59//30 58//30
f 53//31 57//31 58//31 54//31
f 54//32 58//32 59//32 55//32
f 55//33 59//33 60//33 56//33
f 57//34 53//34 56//34 60//34
