# Blender v2.79 (sub 0) OBJ File: 'untitled.blend'
# www.blender.org
mtllib a.mtl
o 贝塞尔曲_CU贝塞尔曲.001
v -1.348624 2.336763 0.327164
v -1.027401 2.336763 0.710329
v -1.027401 2.836763 0.710330
v -1.348624 2.836763 0.327164
v 0.821932 2.836763 0.268944
v 0.802045 2.836763 0.768549
v 0.802045 2.336763 0.768549
v 0.821932 2.336763 0.268944
v -1.203131 2.336763 0.206865
v -0.922315 2.336763 0.620559
v -0.922315 2.836763 0.620559
v -1.203131 2.836763 0.206865
v -1.030006 2.336763 0.113606
v -0.841389 2.336763 0.576665
v -0.841389 2.836763 0.576666
v -1.030006 2.836763 0.113606
v -0.850148 2.336763 0.061883
v -0.760251 2.336763 0.553735
v -0.760251 2.836763 0.553735
v -0.850148 2.836763 0.061883
v -0.671510 2.336763 0.046532
v -0.667478 2.336763 0.546516
v -0.667478 2.836763 0.546516
v -0.671510 2.836763 0.046532
v -0.497949 2.336763 0.057749
v -0.555738 2.336763 0.554398
v -0.555738 2.836763 0.554399
v -0.497949 2.836763 0.057749
v -0.328122 2.336763 0.085779
v -0.422901 2.336763 0.576714
v -0.422901 2.836763 0.576715
v -0.328122 2.836763 0.085779
v -0.158350 2.336763 0.123056
v -0.269178 2.336763 0.610618
v -0.269178 2.836763 0.610619
v -0.158350 2.836763 0.123056
v 0.015227 2.336763 0.163781
v -0.094954 2.336763 0.651490
v -0.094954 2.836763 0.651490
v 0.015227 2.836763 0.163781
v 0.196016 2.336763 0.203103
v 0.099833 2.336763 0.693765
v 0.099833 2.836763 0.693766
v 0.196016 2.836763 0.203103
v 0.387060 2.336763 0.236590
v 0.315619 2.336763 0.731460
v 0.315619 2.836763 0.731461
v 0.387060 2.836763 0.236590
v 0.591262 2.336763 0.259932
v 0.552969 2.336763 0.758464
v 0.552969 2.836763 0.758465
v 0.591262 2.836763 0.259932
vn -0.7663 -0.0000 0.6424
vn 0.9992 -0.0000 0.0398
vn 0.0000 -1.0000 0.0000
vn 0.6495 -0.0000 0.7603
vn -0.0000 1.0000 -0.0000
vn -0.6372 0.0000 -0.7707
vn 0.4768 -0.0000 0.8790
vn -0.4743 0.0000 -0.8804
vn 0.2720 -0.0000 0.9623
vn -0.2764 0.0000 -0.9610
vn 0.0776 -0.0000 0.9970
vn -0.0856 0.0000 -0.9963
vn -0.0704 -0.0000 0.9975
vn 0.0645 0.0000 -0.9979
vn -0.1657 -0.0000 0.9862
vn 0.1628 0.0000 -0.9867
vn -0.2219 -0.0000 0.9751
vn -0.2154 -0.0000 0.9765
vn 0.2145 0.0000 -0.9767
vn -0.2284 -0.0000 0.9736
vn 0.2284 0.0000 -0.9736
vn -0.2121 -0.0000 0.9772
vn 0.2125 0.0000 -0.9772
vn -0.1721 -0.0000 0.9851
vn 0.1727 0.0000 -0.9850
vn -0.1130 -0.0000 0.9936
vn 0.1136 0.0000 -0.9935
vn -0.0405 -0.0000 0.9992
vn 0.0390 0.0000 -0.9992
usemtl None.001
s 1
f 1//1 2//1 3//1 4//1
f 5//2 6//2 7//2 8//2
f 9//3 10//3 2//3 1//3
f 10//4 11//4 3//4 2//4
f 11//5 12//5 4//5 3//5
f 12//6 9//6 1//6 4//6
f 13//3 14//3 10//3 9//3
f 14//7 15//7 11//7 10//7
f 15//5 16//5 12//5 11//5
f 16//8 13//8 9//8 12//8
f 17//3 18//3 14//3 13//3
f 18//9 19//9 15//9 14//9
f 19//5 20//5 16//5 15//5
f 20//10 17//10 13//10 16//10
f 21//3 22//3 18//3 17//3
f 22//11 23//11 19//11 18//11
f 23//5 24//5 20//5 19//5
f 24//12 21//12 17//12 20//12
f 25//3 26//3 22//3 21//3
f 26//13 27//13 23//13 22//13
f 27//5 28//5 24//5 23//5
f 28//14 25//14 21//14 24//14
f 29//3 30//3 26//3 25//3
f 30//15 31//15 27//15 26//15
f 31//5 32//5 28//5 27//5
f 32//16 29//16 25//16 28//16
f 33//3 34//3 30//3 29//3
f 34//17 35//17 31//18 30//18
f 35//5 36//5 32//5 31//5
f 36//19 33//19 29//19 32//19
f 37//3 38//3 34//3 33//3
f 38//20 39//20 35//17 34//17
f 39//5 40//5 36//5 35//5
f 40//21 37//21 33//21 36//21
f 41//3 42//3 38//3 37//3
f 42//22 43//22 39//22 38//22
f 43//5 44//5 40//5 39//5
f 44//23 41//23 37//23 40//23
f 45//3 46//3 42//3 41//3
f 46//24 47//24 43//24 42//24
f 47//5 48//5 44//5 43//5
f 48//25 45//25 41//25 44//25
f 49//3 50//3 46//3 45//3
f 50//26 51//26 47//26 46//26
f 51//5 52//5 48//5 47//5
f 52//27 49//27 45//27 48//27
f 8//3 7//3 50//3 49//3
f 7//28 6//28 51//28 50//28
f 6//5 5//5 52//5 51//5
f 5//29 8//29 49//29 52//29
o Cube.002
v -0.373958 -0.170598 2.690172
v -0.373958 -0.170598 4.690172
v -2.373958 -0.170598 4.690172
v -2.373958 -0.170598 2.690172
v -0.373958 1.829402 2.690173
v -2.373958 1.829402 2.690172
v -2.373959 1.829402 4.690172
v -0.373959 1.829402 4.690173
vn 0.0000 -1.0000 -0.0000
vn -0.0000 1.0000 0.0000
vn 1.0000 0.0000 0.0000
vn -0.0000 -0.0000 1.0000
vn -1.0000 -0.0000 -0.0000
vn 0.0000 0.0000 -1.0000
usemtl Material.002
s 1
f 53//30 54//30 55//30 56//30
f 57//31 58//31 59//31 60//31
f 53//32 57//32 60//32 54//32
f 54//33 60//33 59//33 55//33
f 55//34 59//34 58//34 56//34
f 57//35 53//35 56//35 58//35
o 贝塞尔曲_CU贝塞尔曲
v -3.001622 1.836543 3.814660
v -2.680399 1.836543 4.197825
v -2.680399 2.336543 4.197825
v -3.001622 2.336543 3.814661
v -0.831066 2.336543 3.756440
v -0.850953 2.336543 4.256045
v -0.850953 1.836543 4.256045
v -0.831066 1.836543 3.756440
v -2.856129 1.836543 3.694361
v -2.575313 1.836543 4.108055
v -2.575313 2.336543 4.108056
v -2.856129 2.336543 3.694361
v -2.683004 1.836543 3.601102
v -2.494387 1.836543 4.064161
v -2.494387 2.336543 4.064162
v -2.683004 2.336543 3.601102
v -2.503146 1.836543 3.549379
v -2.413249 1.836543 4.041231
v -2.413249 2.336543 4.041232
v -2.503146 2.336543 3.549379
v -2.324508 1.836543 3.534028
v -2.320476 1.836543 4.034012
v -2.320476 2.336543 4.034012
v -2.324508 2.336543 3.534029
v -2.150947 1.836543 3.545245
v -2.208736 1.836543 4.041894
v -2.208736 2.336543 4.041894
v -2.150947 2.336543 3.545245
v -1.981120 1.836543 3.573275
v -2.075899 1.836543 4.064210
v -2.075899 2.336543 4.064210
v -1.981120 2.336543 3.573276
v -1.811348 1.836543 3.610552
v -1.922176 1.836543 4.098114
v -1.922176 2.336543 4.098114
v -1.811348 2.336543 3.610552
v -1.637771 1.836543 3.651277
v -1.747952 1.836543 4.138986
v -1.747952 2.336543 4.138987
v -1.637771 2.336543 3.651278
v -1.456982 1.836543 3.690599
v -1.553164 1.836543 4.181262
v -1.553164 2.336543 4.181262
v -1.456982 2.336543 3.690599
v -1.265938 1.836543 3.724086
v -1.337379 1.836543 4.218956
v -1.337379 2.336543 4.218956
v -1.265938 2.336543 3.724086
v -1.061736 1.836543 3.747428
v -1.100029 1.836543 4.245960
v -1.100029 2.336543 4.245961
v -1.061736 2.336543 3.747428
vn -0.7663 0.0000 0.6424
vn 0.9992 0.0000 0.0398
vn 0.0000 -1.0000 -0.0000
vn 0.6495 -0.0000 0.7603
vn -0.0000 1.0000 0.0000
vn -0.6372 0.0000 -0.7707
vn 0.4768 -0.0000 0.8790
vn -0.4742 0.0000 -0.8804
vn 0.2720 -0.0000 0.9623
vn -0.2764 0.0000 -0.9610
vn 0.0776 -0.0000 0.9970
vn -0.0856 0.0000 -0.9963
vn -0.0704 0.0000 0.9975
vn 0.0645 0.0000 -0.9979
vn -0.1657 0.0000 0.9862
vn 0.1628 0.0000 -0.9867
vn -0.2219 -0.0000 0.9751
vn -0.2154 0.0000 0.9765
vn 0.2145 0.0000 -0.9767
vn -0.2284 -0.0000 0.9736
vn 0.2284 0.0000 -0.9736
vn -0.2121 -0.0000 0.9772
vn 0.2125 0.0000 -0.9772
vn -0.1721 0.0000 0.9851
vn 0.1727 0.0000 -0.9850
vn -0.1130 -0.0000 0.9936
vn 0.1136 0.0000 -0.9935
vn -0.0405 -0.0000 0.9992
vn 0.0390 0.0000 -0.9992
usemtl None
s 1
f 61//36 62//36 63//36 64//36
f 65//37 66//37 67//37 68//37
f 69//38 70//38 62//38 61//38
f 70//39 71//39 63//39 62//39
f 71//40 72//40 64//40 63//40
f 72//41 69//41 61//41 64//41
f 73//38 74//38 70//38 69//38
f 74//42 75//42 71//42 70//42
f 75//40 76//40 72//40 71//40
f 76//43 73//43 69//43 72//43
f 77//38 78//38 74//38 73//38
f 78//44 79//44 75//44 74//44
f 79//40 80//40 76//40 75//40
f 80//45 77//45 73//45 76//45
f 81//38 82//38 78//38 77//38
f 82//46 83//46 79//46 78//46
f 83//40 84//40 80//40 79//40
f 84//47 81//47 77//47 80//47
f 85//38 86//38 82//38 81//38
f 86//48 87//48 83//48 82//48
f 87//40 88//40 84//40 83//40
f 88//49 85//49 81//49 84//49
f 89//38 90//38 86//38 85//38
f 90//50 91//50 87//50 86//50
f 91//40 92//40 88//40 87//40
f 92//51 89//51 85//51 88//51
f 93//38 94//38 90//38 89//38
f 94//52 95//52 91//53 90//53
f 95//40 96//40 92//40 91//40
f 96//54 93//54 89//54 92//54
f 97//38 98//38 94//38 93//38
f 98//55 99//55 95//52 94//52
f 99//40 100//40 96//40 95//40
f 100//56 97//56 93//56 96//56
f 101//38 102//38 98//38 97//38
f 102//57 103//57 99//57 98//57
f 103//40 104//40 100//40 99//40
f 104//58 101//58 97//58 100//58
f 105//38 106//38 102//38 101//38
f 106//59 107//59 103//59 102//59
f 107//40 108//40 104//40 103//40
f 108//60 105//60 101//60 104//60
f 109//38 110//38 106//38 105//38
f 110//61 111//61 107//61 106//61
f 111//40 112//40 108//40 107//40
f 112//62 109//62 105//62 108//62
f 68//38 67//38 110//38 109//38
f 67//63 66//63 111//63 110//63
f 66//40 65//40 112//40 111//40
f 65//64 68//64 109//64 112//64
o Cube.001
v -0.373958 -1.441733 2.690172
v -0.373958 -1.441733 4.690172
v -2.373958 -1.441733 4.690172
v -2.373958 -1.441733 2.690172
v -0.373958 0.558268 2.690173
v -2.373958 0.558268 2.690172
v -2.373959 0.558267 4.690172
v -0.373959 0.558267 4.690173
vn 0.0000 -1.0000 -0.0000
vn -0.0000 1.0000 0.0000
vn 1.0000 0.0000 0.0000
vn -0.0000 -0.0000 1.0000
vn -1.0000 -0.0000 -0.0000
vn 0.0000 0.0000 -1.0000
usemtl Material.001
s 1
f 113//65 114//65 115//65 116//65
f 117//66 118//66 119//66 120//66
f 113//67 117//67 120//67 114//67
f 114//68 120//68 119//68 115//68
f 115//69 119//69 118//69 116//69
f 117//70 113//70 116//70 118//70
o Cube
v 0.220473 0.245223 -0.769914
v 0.220473 0.245223 1.230086
v -1.779527 0.245223 1.230086
v -1.779527 0.245223 -0.769914
v 0.220473 2.245223 -0.769913
v 0.220472 2.245223 1.230087
v -1.779527 2.245223 1.230086
v -1.779527 2.245223 -0.769914
vn 0.0000 -1.0000 0.0000
vn 0.0000 1.0000 0.0000
vn 1.0000 0.0000 0.0000
vn -0.0000 -0.0000 1.0000
vn -1.0000 -0.0000 -0.0000
vn 0.0000 0.0000 -1.0000
usemtl Material
s off
f 121//71 122//71 123//71 124//71
f 125//72 128//72 127//72 126//72
f 121//73 125//73 126//73 122//73
f 122//74 126//74 127//74 123//74
f 123//75 127//75 128//75 124//75
f 125//76 121//76 124//76 128//76
